<svg width="49" height="60" viewBox="0 0 49 60" fill="none" xmlns="http://www.w3.org/2000/svg">
<path d="M44.2723 0.00858307C44.2723 0.0250778 44.1486 2.11165 44.0002 4.64359C43.8517 7.16727 43.7115 9.26209 43.6868 9.28683C43.6538 9.31158 43.2827 9.22086 42.8456 9.08065C40.8992 8.45386 38.9776 8.20643 36.5363 8.27241C33.6085 8.34664 31.2086 8.84148 28.1323 9.98786C27.522 10.2188 27.0189 10.392 27.0024 10.3755C26.9942 10.359 26.9447 8.82499 26.887 6.96933C26.8375 5.10544 26.7715 3.09309 26.7468 2.49103L26.689 1.39413L24.3303 1.45187C23.0355 1.47661 21.9633 1.51785 21.9468 1.52609C21.9303 1.54259 22.3097 5.18791 23.3406 14.5981C23.654 17.5259 24.1901 22.4743 24.5282 25.6083C24.8664 28.7341 25.1633 31.4557 25.1963 31.6454L25.2375 32H26.4416H27.6457L27.588 30.2433C27.5632 29.2866 27.5138 27.6042 27.489 26.5155C27.4643 25.4269 27.3735 22.1692 27.2828 19.2661C27.2004 16.3713 27.1261 13.9301 27.1261 13.8394C27.1261 13.6497 27.489 13.4765 29.3612 12.7755C31.0601 12.1487 32.8415 11.6786 34.7549 11.3817C36.2807 11.1342 38.7219 11.2085 40.4456 11.5549C41.2951 11.728 43.1837 12.3136 43.4146 12.4786C43.5301 12.5693 43.5053 13.2126 43.1672 19.1754C42.9693 22.8042 42.7548 26.4908 42.7053 27.365C42.6476 28.2392 42.6229 28.9732 42.6476 28.998C42.7218 29.0722 44.7259 29.2784 44.7837 29.2124C44.8167 29.1794 45.0476 27.7279 45.3033 25.9794C45.5589 24.231 46.0785 20.6517 46.4661 18.0208C46.8538 15.3899 47.4476 11.3239 47.7857 8.98993C48.1321 6.65594 48.5362 3.86834 48.6929 2.80443C48.8496 1.74052 48.9816 0.79208 48.9816 0.693111C48.9816 0.536411 48.8744 0.511669 46.9032 0.297239C45.7569 0.173529 44.693 0.049818 44.5528 0.0250778C44.4043 0.000335693 44.2806 -0.00791168 44.2723 0.00858307Z" fill="#D25239"/>
<path d="M17.9473 5.62502C17.6091 6.27656 16.5452 8.39613 15.572 10.3343L13.8071 13.8724L13.0649 13.8311C10.4422 13.6909 8.46284 14.4084 6.98657 16.0249C6.59894 16.4538 6.59069 16.4538 6.44224 16.2888C6.35152 16.1981 4.8835 14.4414 3.1763 12.3961C1.46085 10.3425 0.0340611 8.64355 0.00931913 8.62705C-0.0236702 8.61056 0.0340611 10.6229 0.133029 13.0971C0.512407 22.6145 0.817558 30.4907 0.817558 30.8619C0.817558 31.1093 0.850548 31.2577 0.916526 31.2577C1.06498 31.2577 4.90824 30.2598 5.01545 30.1856C5.08968 30.1444 5.07318 29.699 4.94947 28.2805C4.74329 26.0289 4.03402 17.9383 4.03402 17.8228C4.03402 17.7733 4.65257 18.3837 5.40308 19.1754C6.16183 19.9671 6.78863 20.6187 6.80512 20.6187C6.82162 20.6187 6.93708 20.4207 7.05255 20.1816C7.58037 19.1342 8.4381 18.1857 9.37829 17.6249C10.434 16.9816 12.2814 16.6435 13.7989 16.8084C14.2525 16.8579 14.6401 16.8826 14.6731 16.8661C14.7061 16.8414 15.1349 16.1239 15.6215 15.2579C16.1081 14.3919 16.5205 13.6909 16.5287 13.7074C16.5452 13.7239 16.7597 14.6971 17.0153 15.8765C17.8483 19.7857 18.3844 22.2846 18.937 24.7836C19.2339 26.1444 19.7122 28.3134 19.9926 29.6083L20.504 31.9588L21.873 31.9835C23.1843 32 23.2503 32 23.2503 31.8433C23.2503 31.7113 22.5163 27.3238 21.5679 21.7733C21.4112 20.8414 20.9576 18.2105 20.5699 15.9177C19.2009 7.87654 18.6153 4.49514 18.5906 4.47039C18.5823 4.4539 18.2937 4.97348 17.9473 5.62502Z" fill="#D25239"/>
<path d="M37.6914 17.0475C37.0564 17.3609 36.7677 18.3011 37.0976 18.9527C37.6419 20.0248 39.2007 20.0001 39.679 18.9114C39.9842 18.2187 39.6955 17.3445 39.0605 17.0475C38.6893 16.8661 38.0543 16.8744 37.6914 17.0475Z" fill="#D25239"/>
<path d="M31.044 18.1362C30.8213 18.2352 30.4254 18.6393 30.3347 18.8702C30.0378 19.6537 30.6894 20.6187 31.5141 20.6187C32.8337 20.6187 33.3203 18.9197 32.2069 18.2352C31.9182 18.0537 31.3574 18.0125 31.044 18.1362Z" fill="#D25239"/>
<path d="M13.9312 21.2867C13.3539 21.5259 13.024 22.1609 13.1889 22.7465C13.3209 23.2661 13.7745 23.5877 14.3601 23.5877C15.0446 23.5877 15.5229 23.1094 15.5312 22.4331C15.5477 21.6166 14.657 20.9815 13.9312 21.2867Z" fill="#D25239"/>
<path d="M7.32423 22.4578C6.84589 22.7794 6.6562 23.1423 6.68919 23.6784C6.74692 24.4619 7.23351 24.9072 8.0335 24.9072C9.01493 24.9072 9.61699 23.8846 9.17988 22.9609C8.88298 22.3341 7.90154 22.0701 7.32423 22.4578Z" fill="#D25239"/>
<path d="M34.9039 22.5899C34.1946 22.7878 33.7492 23.0022 33.1637 23.4393L32.7266 23.761L32.908 24.0249C33.3699 24.6929 34.0131 25.4104 34.475 25.7733C34.9451 26.1445 36.1575 26.8867 36.2977 26.8867C36.3224 26.8867 36.5781 26.5898 36.8502 26.2187C37.4275 25.4599 37.9471 24.4373 38.1286 23.7115C38.3595 22.7795 38.376 22.8373 37.7244 22.6641C36.8255 22.4249 35.6214 22.4002 34.9039 22.5899Z" fill="#D25239"/>
<path d="M11.4898 25.5671C11.0857 25.7733 10.8383 26.0125 10.9125 26.1362C10.9785 26.2434 12.1661 27.2166 12.2321 27.2166C12.2568 27.2166 12.463 26.8455 12.694 26.3919C12.9661 25.8476 13.0733 25.5589 13.0073 25.5177C12.9579 25.4847 12.6775 25.4434 12.3723 25.4269C11.9352 25.4022 11.762 25.4269 11.4898 25.5671Z" fill="#D25239"/>
<path d="M5.50898 46.24C5.23698 46.24 4.97298 46.168 4.71698 46.024C4.46098 45.88 4.27698 45.664 4.16498 45.376L1.26098 37.6C1.21298 37.456 1.18898 37.32 1.18898 37.192C1.18898 36.888 1.30098 36.64 1.52498 36.448C1.74898 36.256 2.00498 36.16 2.29298 36.16C2.48498 36.16 2.67698 36.216 2.86898 36.328C3.07698 36.424 3.21298 36.584 3.27698 36.808L5.22098 42.544C5.31698 42.816 5.43698 42.952 5.58098 42.952C5.72498 42.952 5.84498 42.824 5.94098 42.568L8.00498 36.832C8.08498 36.608 8.21298 36.448 8.38898 36.352C8.58098 36.24 8.77298 36.184 8.96498 36.184C9.31698 36.184 9.58898 36.304 9.78098 36.544C9.97298 36.784 10.069 37.04 10.069 37.312C10.069 37.36 10.069 37.416 10.069 37.48C10.069 37.528 10.053 37.584 10.021 37.648L6.90098 45.376C6.78898 45.664 6.59698 45.88 6.32498 46.024C6.06898 46.168 5.79698 46.24 5.50898 46.24ZM13.1927 46C12.7287 46 12.3527 45.856 12.0647 45.568C11.7767 45.28 11.6327 44.904 11.6327 44.44V37.768C11.6327 37.304 11.7687 36.944 12.0407 36.688C12.3127 36.416 12.6727 36.28 13.1207 36.28H16.7447C17.4167 36.28 17.7527 36.6 17.7527 37.24C17.7527 37.512 17.6567 37.744 17.4647 37.936C17.2727 38.112 17.0327 38.2 16.7447 38.2H14.2727C13.9527 38.2 13.7927 38.36 13.7927 38.68V39.64C13.7927 39.96 13.9527 40.12 14.2727 40.12H16.3847C16.7047 40.12 16.9527 40.208 17.1287 40.384C17.3047 40.56 17.3927 40.792 17.3927 41.08C17.3927 41.336 17.2887 41.56 17.0807 41.752C16.8887 41.944 16.6567 42.04 16.3847 42.04H14.2727C13.9527 42.04 13.7927 42.2 13.7927 42.52V43.576C13.7927 43.896 13.9527 44.056 14.2727 44.056H16.9847C17.2887 44.056 17.5287 44.144 17.7047 44.32C17.8967 44.496 17.9927 44.736 17.9927 45.04C17.9927 45.312 17.8967 45.544 17.7047 45.736C17.5127 45.912 17.2727 46 16.9847 46H13.1927ZM22.7918 46.24C22.4878 46.24 22.2318 46.152 22.0238 45.976C21.8158 45.784 21.7118 45.536 21.7118 45.232V38.968C21.7118 38.488 21.4718 38.248 20.9918 38.248H19.8158C19.5278 38.248 19.2878 38.16 19.0958 37.984C18.9198 37.792 18.8318 37.552 18.8318 37.264C18.8318 36.976 18.9198 36.744 19.0958 36.568C19.2878 36.376 19.5278 36.28 19.8158 36.28H25.7438C26.0478 36.28 26.2878 36.376 26.4638 36.568C26.6558 36.744 26.7518 36.976 26.7518 37.264C26.7518 37.552 26.6558 37.792 26.4638 37.984C26.2878 38.16 26.0478 38.248 25.7438 38.248H24.5918C24.1118 38.248 23.8718 38.488 23.8718 38.968V45.232C23.8718 45.536 23.7678 45.784 23.5598 45.976C23.3678 46.152 23.1118 46.24 22.7918 46.24ZM31.1824 46.24C30.8784 46.24 30.6224 46.152 30.4144 45.976C30.2064 45.784 30.1024 45.536 30.1024 45.232V38.968C30.1024 38.488 29.8624 38.248 29.3824 38.248H28.2064C27.9184 38.248 27.6784 38.16 27.4864 37.984C27.3104 37.792 27.2224 37.552 27.2224 37.264C27.2224 36.976 27.3104 36.744 27.4864 36.568C27.6784 36.376 27.9184 36.28 28.2064 36.28H34.1344C34.4384 36.28 34.6784 36.376 34.8544 36.568C35.0464 36.744 35.1424 36.976 35.1424 37.264C35.1424 37.552 35.0464 37.792 34.8544 37.984C34.6784 38.16 34.4384 38.248 34.1344 38.248H32.9824C32.5024 38.248 32.2624 38.488 32.2624 38.968V45.232C32.2624 45.536 32.1584 45.784 31.9504 45.976C31.7584 46.152 31.5024 46.24 31.1824 46.24ZM40.053 46.24C39.749 46.24 39.493 46.152 39.285 45.976C39.077 45.784 38.973 45.536 38.973 45.232V42.712C38.973 42.536 38.957 42.368 38.925 42.208C38.909 42.032 38.845 41.864 38.733 41.704L36.045 37.84C35.917 37.632 35.853 37.44 35.853 37.264C35.853 36.96 35.965 36.704 36.189 36.496C36.413 36.272 36.677 36.16 36.981 36.16C37.365 36.16 37.653 36.32 37.845 36.64L39.621 39.448C39.765 39.672 39.917 39.784 40.077 39.784C40.237 39.784 40.389 39.672 40.533 39.448L42.261 36.64C42.453 36.32 42.741 36.16 43.125 36.16C43.445 36.16 43.709 36.272 43.917 36.496C44.141 36.704 44.253 36.96 44.253 37.264C44.253 37.44 44.189 37.632 44.061 37.84L41.373 41.704C41.261 41.864 41.189 42.032 41.157 42.208C41.141 42.368 41.133 42.536 41.133 42.712V45.232C41.133 45.536 41.029 45.784 40.821 45.976C40.629 46.152 40.373 46.24 40.053 46.24Z" fill="#D25239"/>
</svg>
